<svg width="24" height="29" viewBox="0 0 24 29" fill="none" xmlns="http://www.w3.org/2000/svg">
<g id="Isolation_Mode 1" clip-path="url(#clip0_6315_19906)">
<g id="Clip path group">
<mask id="mask0_6315_19906" style="mask-type:luminance" maskUnits="userSpaceOnUse" x="0" y="0" width="24" height="29">
<g id="clip0_8309_2477">
<path id="Vector" d="M24 0.5H0V28.5H24V0.5Z" fill="white"/>
</g>
</mask>
<g mask="url(#mask0_6315_19906)">
<g id="Group">
<path id="Vector_2" d="M0 22.2771L2.04206 24.5204L3.61972 22.7873C2.93691 22.0302 2.33469 21.1846 1.82576 20.2715L0 22.2771Z" fill="#F29620"/>
<path id="Vector_3" d="M8.91852 12.4785L8.31844 13.1378L5.22461 16.5364C5.61264 17.5451 6.17245 18.4559 6.86164 19.2246L10.3605 15.381L10.9606 14.7218L8.91852 12.4785Z" fill="#F29620"/>
<path id="Vector_4" d="M5.22535 16.5352L1.82617 20.2693C2.33297 21.1847 2.93732 22.028 3.62013 22.7851L6.86238 19.2234C6.17323 18.4546 5.61341 17.5438 5.22535 16.5352Z" fill="#F29620"/>
<path id="Vector_5" d="M4.0332 26.2568L6.07529 28.5L8.30184 26.0541C7.33487 25.6767 6.42093 25.1736 5.57907 24.5586L4.0332 26.2568Z" fill="#F29620"/>
<path id="Vector_6" d="M8.92546 20.8812L5.57715 24.5595C6.41901 25.1744 7.33081 25.6799 8.29991 26.055L12.1826 21.7898C11.0142 21.7478 9.91151 21.4263 8.92546 20.8789V20.8812Z" fill="#F29620"/>
<path id="Vector_7" d="M12.7745 16.6523L12.1744 17.3116L8.92578 20.8803C9.91183 21.4254 11.0145 21.7492 12.1829 21.7911L14.2165 19.5572L14.8166 18.8979L12.7745 16.6547V16.6523Z" fill="#F29620"/>
<path id="Vector_8" d="M17.3601 11.6172L12.7734 16.6535L14.8176 18.8967L18.5561 14.7899H20.9905V11.6172H17.3601Z" fill="#F29620"/>
<path id="Vector_9" d="M8.91895 12.4772L10.961 14.7204L21.0208 3.67188H16.9345L8.91895 12.4772Z" fill="#F29620"/>
<path id="Vector_10" d="M20.9904 14.7889C20.3012 19.2917 16.7281 22.7323 12.4362 22.7323C7.65233 22.7323 3.76119 18.4577 3.76119 13.2025C3.76119 7.94724 7.65233 3.67271 12.4362 3.67271H21.0201L23.9082 0.5H12.4362C6.05982 0.5 0.873047 6.19783 0.873047 13.2025C0.873047 20.2072 6.05982 25.905 12.4362 25.905C18.8126 25.905 23.9994 20.2072 23.9994 13.2025V11.6161H20.9904V14.7889Z" fill="#F29620"/>
<path id="Vector_11" d="M16.9342 3.67188H21.0204L15.9863 4.71314L16.9342 3.67188Z" fill="#F29620"/>
<path id="Vector_12" d="M20.9912 11.6152L20.1133 14.788H20.9912V11.6152Z" fill="#F29620"/>
</g>
</g>
</g>
</g>
<defs>
<clipPath id="clip0_6315_19906">
<rect width="24" height="28" fill="white" transform="translate(0 0.5)"/>
</clipPath>
</defs>
</svg>
